999
"DXF R12 Output" (www.mydxf.blogspot.com)
 0 
SECTION
 2 
HEADER
 9 
$ACADVER
 1 
AC1009
 9 
$EXTMIN
 10 
 0 
 20 
 0 
 9 
$EXTMAX
 10 
 8.5 
 20 
 11 
 0 
ENDSEC
 0 
SECTION
 2 
ENTITIES
0
LINE
8
Layer 1
10
0.846666
20
1094.460000
11
-0.846666
21
1092.760000
0
LINE
8
Layer 1
10
0.000000
20
1095.020000
11
0.000000
21
1092.200000
0
LINE
8
Layer 1
10
2.257780
20
1092.480000
11
1.128890
21
1091.351110
0
LINE
8
Layer 1
10
1.693330
20
1093.050000
11
0.564440
21
1091.921110
0
LINE
8
Layer 1
10
1.128890
20
1093.610000
11
0.000000
21
1092.481110
0
LINE
8
0
10
611.696000
20
1228.510000
11
611.696000
21
876.506000
0
LINE
8
0
10
611.696000
20
876.506000
11
131.697000
21
876.506000
0
LINE
8
0
10
131.697000
20
876.506000
11
131.697000
21
1228.510000
0
LINE
8
0
10
131.697000
20
1228.510000
11
611.696000
21
1228.510000
0
LINE
8
0
10
651.162000
20
1228.510000
11
651.162000
21
876.506000
0
LINE
8
0
10
651.162000
20
876.506000
11
716.584000
21
876.506000
0
LINE
8
0
10
716.584000
20
876.506000
11
716.584000
21
1228.510000
0
LINE
8
0
10
716.584000
20
1228.510000
11
651.162000
21
1228.510000
0
LINE
8
0
10
65.563400
20
876.506000
11
65.563400
21
1228.510000
0
LINE
8
0
10
65.563400
20
1228.510000
11
0.141280
21
1228.510000
0
LINE
8
0
10
0.141280
20
1228.510000
11
0.141280
21
876.506000
0
LINE
8
0
10
0.141280
20
876.506000
11
65.563400
21
876.506000
0
LINE
8
0
10
598.896000
20
776.950000
11
598.896000
21
842.372000
0
LINE
8
0
10
598.896000
20
842.372000
11
144.497000
21
842.372000
0
LINE
8
0
10
144.497000
20
842.372000
11
144.497000
21
776.950000
0
LINE
8
0
10
144.497000
20
776.950000
11
598.896000
21
776.950000
0
LINE
8
0
10
144.497000
20
1333.390000
11
144.497000
21
1267.970000
0
LINE
8
0
10
144.497000
20
1267.970000
11
598.896000
21
1267.970000
0
LINE
8
0
10
598.896000
20
1267.970000
11
598.896000
21
1333.390000
0
LINE
8
0
10
598.896000
20
1333.390000
11
144.497000
21
1333.390000
0
LINE
8
0
10
598.896000
20
1402.730000
11
598.896000
21
1429.040000
0
LINE
8
0
10
598.896000
20
1429.040000
11
144.497000
21
1429.040000
0
LINE
8
0
10
144.497000
20
1429.040000
11
144.497000
21
1402.730000
0
LINE
8
0
10
144.497000
20
1402.730000
11
598.896000
21
1402.730000
0
LINE
8
0
10
92.230000
20
1463.170000
11
92.230000
21
1815.170000
0
LINE
8
0
10
92.230000
20
1815.170000
11
65.918900
21
1815.170000
0
LINE
8
0
10
65.918900
20
1815.170000
11
65.918900
21
1463.170000
0
LINE
8
0
10
65.918900
20
1463.170000
11
92.230000
21
1463.170000
0
LINE
8
0
10
651.162000
20
1815.170000
11
651.162000
21
1463.170000
0
LINE
8
0
10
651.162000
20
1463.170000
11
677.473000
21
1463.170000
0
LINE
8
0
10
677.473000
20
1463.170000
11
677.473000
21
1815.170000
0
LINE
8
0
10
677.473000
20
1815.170000
11
651.162000
21
1815.170000
0
LINE
8
0
10
144.497000
20
1870.280000
11
144.497000
21
1843.970000
0
LINE
8
0
10
144.497000
20
1843.970000
11
598.896000
21
1843.970000
0
LINE
8
0
10
598.896000
20
1843.970000
11
598.896000
21
1870.280000
0
LINE
8
0
10
598.896000
20
1870.280000
11
144.497000
21
1870.280000
0
LINE
8
0
10
611.696000
20
1463.170000
11
131.697000
21
1463.170000
0
LINE
8
0
10
131.697000
20
1463.170000
11
131.697000
21
1815.170000
0
LINE
8
0
10
131.697000
20
1815.170000
11
611.696000
21
1815.170000
0
LINE
8
0
10
611.696000
20
1815.170000
11
611.696000
21
1463.170000
 0 
ENDSEC
 0 
EOF